<svg width="32" height="32" viewBox="0 0 170 110" xmlns="http://www.w3.org/2000/svg"><rect x="10" y="70" width="120" height="18" rx="4" fill="#8a9db5"/><rect x="10" y="48" width="120" height="18" rx="4" fill="#a8b8cc"/><rect x="10" y="26" width="120" height="18" rx="4" fill="#c4ced9"/><rect x="10" y="4" width="120" height="18" rx="4" fill="#d5dce6" transform="rotate(-10 70 13)"/><rect x="138" y="0" width="12" height="12" fill="#8a9db5" transform="rotate(-15 144 6)"/><rect x="155" y="10" width="9" height="9" fill="#c8935f" transform="rotate(8 159 14)"/><rect x="140" y="24" width="10" height="10" fill="#a8b8cc"/><rect x="158" y="28" width="7" height="7" fill="#8a9db5" transform="rotate(-10 161 31)"/><rect x="152" y="40" width="6" height="6" fill="#8a9db5" transform="rotate(12 155 43)"/><rect x="138" y="44" width="5" height="5" fill="#c8935f"/></svg>